<svg xmlns="http://www.w3.org/2000/svg" width="162.998" height="137.086" viewBox="0 0 162.998 137.086">
  <g id="Group_37" data-name="Group 37" transform="translate(-1824.168 -130.494)">
    <g id="Group_34" data-name="Group 34">
      <g id="Group_33" data-name="Group 33">
        <path id="Path_41" data-name="Path 41" d="M1874.489,238.549l34.485-76.054.038-.093c.145-.352,1.15-2.672,7.988-17.739l6.44-14.169h-3.549l-11.264,24.792c-2.647,4.6-9.717,13.409-17.514,13.806-7.837.286-12.277-3.943-17.037-8.462s-9.678-9.187-18.163-9.187a24.6,24.6,0,0,0-2.969.192l-9.794-21.141h-18.982Zm-20.126-83.85c8.036-.594,12.541,3.517,17.23,7.965l.335.318c4.982,4.729,10.139,9.642,19.317,9.292,4.084-.208,8.3-2.194,12.3-5.773l-21.6,47.669Z" fill="#fff"/>
        <path id="Path_42" data-name="Path 42" d="M1938.215,238.549l34.485-76.054.038-.093c.145-.352,1.15-2.672,7.987-17.739l6.441-14.169h-3.549l-11.264,24.792c-2.648,4.6-9.717,13.409-17.514,13.806-7.837.286-12.277-3.943-17.037-8.462s-9.678-9.187-18.163-9.187a24.588,24.588,0,0,0-2.969.192l-9.794-21.141h-18.982Zm-20.126-83.85c8.036-.594,12.541,3.517,17.23,7.965l.335.318c4.982,4.729,10.139,9.642,19.317,9.292,4.084-.208,8.3-2.194,12.3-5.773l-21.6,47.669Z" fill="#fff"/>
      </g>
    </g>
    <g id="Group_36" data-name="Group 36">
      <g id="Group_35" data-name="Group 35">
        <path id="Path_43" data-name="Path 43" d="M1867.593,267.37h-1.707l-2.245-7.454-2.26,7.454h-1.707l-2.993-10.029h1.676l2.2,7.559,2.305-7.559h1.541l2.306,7.559,2.2-7.559h1.691Z" fill="#fff"/>
        <path id="Path_44" data-name="Path 44" d="M1882.454,267.37h-7.469V257.341h7.454v1.453h-5.852v2.828h5.4v1.437h-5.4v2.859h5.867Z" fill="#fff"/>
        <path id="Path_45" data-name="Path 45" d="M1894.861,259.961l-1.6.329a2.178,2.178,0,0,0-2.29-1.766c-1.183,0-1.961.644-1.961,1.527,0,.7.4,1.077,1.272,1.257l2.171.464c1.5.329,2.574,1.168,2.574,2.74,0,1.885-1.542,3.068-3.847,3.068-2.125,0-3.891-1.033-4.146-2.979l1.706-.359a2.359,2.359,0,0,0,2.589,1.915c1.348,0,2.111-.643,2.111-1.556,0-.763-.4-1.122-1.407-1.332l-2.185-.449c-1.243-.285-2.53-.943-2.53-2.724s1.452-2.964,3.682-2.964A3.65,3.65,0,0,1,1894.861,259.961Z" fill="#fff"/>
        <path id="Path_46" data-name="Path 46" d="M1903.976,258.794v8.576h-1.617v-8.576h-3.517v-1.453h8.666v1.453Z" fill="#fff"/>
        <path id="Path_47" data-name="Path 47" d="M1926.186,267.37h-7.469V257.341h7.455v1.453h-5.853v2.828h5.4v1.437h-5.4v2.859h5.867Z" fill="#fff"/>
        <path id="Path_48" data-name="Path 48" d="M1940.255,267.37h-1.362l-6.062-7.2v7.2h-1.6V257.341h1.362l6.047,7.32v-7.32h1.617Z" fill="#fff"/>
        <path id="Path_49" data-name="Path 49" d="M1949.114,257.341c3.413,0,5.539,2.1,5.539,5.015s-2.126,5.014-5.539,5.014h-3.5V257.341Zm0,8.577c2.44,0,3.922-1.481,3.922-3.562s-1.482-3.562-3.922-3.562h-1.9v7.124Z" fill="#fff"/>
      </g>
    </g>
  </g>
</svg>
