<svg xmlns="http://www.w3.org/2000/svg" width="78.457" height="52.875" viewBox="0 0 78.457 52.875">
  <g id="Group_53" data-name="Group 53" transform="translate(-681.229 -2188.866)">
    <path id="Path_58" data-name="Path 58" d="M755.033,2188.867H685.881a4.655,4.655,0,0,0-4.652,4.657V2237.1a4.649,4.649,0,0,0,4.37,4.639l.043,0h69.634l.039,0a4.651,4.651,0,0,0,4.371-4.639v-43.575A4.655,4.655,0,0,0,755.033,2188.867Zm.2,51.472H685.685a3.252,3.252,0,0,1-3.035-2.9h75.615A3.25,3.25,0,0,1,755.231,2240.339Zm3.051-3.6H682.631v-2.9h75.651Zm0-3.6H682.631v-2.959h75.651Zm0-3.655H682.631v-35.957a3.251,3.251,0,0,1,3.25-3.253h69.152a3.25,3.25,0,0,1,3.249,3.253Z" fill="#1b3534"/>
    <g id="Group_52" data-name="Group 52">
      <path id="Path_59" data-name="Path 59" d="M710.677,2209.146c0-2.144-1.13-3.394-2.028-3.394a1.529,1.529,0,0,0-1.226.532,4,4,0,0,0-.84,2.92,4.541,4.541,0,0,0,.607,2.708,1.634,1.634,0,0,0,1.539.842c1.286,0,1.948-1.619,1.948-3.608m1.034-3.02a4.216,4.216,0,0,1,1.347,3.078,4.481,4.481,0,0,1-1.211,2.964,4.321,4.321,0,0,1-3.273,1.4,3.814,3.814,0,0,1-3.158-1.4,4.1,4.1,0,0,1-1.053-3.022,4.359,4.359,0,0,1,1.635-3.234,4.221,4.221,0,0,1,2.768-.937,4.137,4.137,0,0,1,2.945,1.151" fill="#1b3534"/>
      <path id="Path_60" data-name="Path 60" d="M733.377,2207.706c.409,0,.644-.117.644-.273,0-.584-.2-1.735-1.207-1.735-.957,0-1.542.7-1.8,2.008h2.359m-2.416,1.3a2.937,2.937,0,0,0,2.534,3.158,2.649,2.649,0,0,0,2.357-1.131c.08-.136.157-.136.237-.1l.289.174c.1.058.137.138,0,.389a3.856,3.856,0,0,1-3.545,2.068,3.393,3.393,0,0,1-2.808-1.05,4.424,4.424,0,0,1-1.093-3.217,4.051,4.051,0,0,1,.957-2.887,3.683,3.683,0,0,1,3.391-1.443c2.222,0,2.945,2.321,2.945,3.122,0,.291-.2.312-.548.312h-4.716Z" fill="#1b3534"/>
      <path id="Path_61" data-name="Path 61" d="M738.539,2208.33c0-.9-.154-1.208-.74-1.52l-.35-.2c-.115-.041-.153-.077-.153-.158v-.117c0-.075.038-.114.153-.174l2.359-1.111a.9.9,0,0,1,.312-.079c.117,0,.154.119.176.236l.174,1.4h.079a3.025,3.025,0,0,1,2.337-1.756.955.955,0,0,1,1.014.976,1.131,1.131,0,0,1-1.053,1.053,1.507,1.507,0,0,1-.663-.155.881.881,0,0,0-.545-.159,1.026,1.026,0,0,0-.818.567,2.232,2.232,0,0,0-.235.957v3.759c0,.624.157.82.547.82h.86c.114,0,.153.038.153.133v.452c0,.1-.039.136-.135.136-.138,0-1-.059-2.419-.059-1.363,0-2.123.059-2.278.059-.1,0-.139-.04-.139-.136v-.427c0-.12.04-.158.174-.158h.685a.458.458,0,0,0,.505-.527v-3.819" fill="#1b3534"/>
      <path id="Path_62" data-name="Path 62" d="M744.5,2210.885c-.02-.078,0-.139.056-.158l.371-.115c.079-.021.136-.021.176.057l.642,1.092a1.743,1.743,0,0,0,1.678,1.048,1.253,1.253,0,0,0,1.383-1.186c0-.781-.507-1.133-1.87-1.52-1.325-.39-2.38-1.053-2.38-2.437a2.373,2.373,0,0,1,.994-2.046,3.234,3.234,0,0,1,2.027-.645,3.77,3.77,0,0,1,1.893.432c.291.153.35.233.367.345l.258,1.331a.278.278,0,0,1-.021.213l-.371.175a.121.121,0,0,1-.155-.079l-.938-1.052a1.58,1.58,0,0,0-1.227-.6,1.212,1.212,0,0,0-1.346,1.11c0,.8.586,1.034,1.755,1.343a3.58,3.58,0,0,1,1.951,1.013,2,2,0,0,1,.582,1.562c0,1.636-1.325,2.8-3.252,2.8a4.117,4.117,0,0,1-2.108-.507.53.53,0,0,1-.154-.213l-.311-1.967" fill="#1b3534"/>
      <path id="Path_63" data-name="Path 63" d="M728.1,2212.676h-.78c-.2,0-.274-.155-.311-.508a16.29,16.29,0,0,1-.042-1.678v-2.1c0-1.618,0-2.865.042-3.177.018-.157-.042-.236-.158-.236a1.345,1.345,0,0,0-.467.119c-.334.134-2.261.818-2.534.933-.1.04-.137.08-.137.157v.217c0,.074.018.134.2.172.9.237,1.015.625,1.015,1.209v2.751c0,.543-.019,1.167-.04,1.752-.02.314-.117.391-.311.391a7.624,7.624,0,0,1-.965.028c-.83,0-1.054-.028-1.054-.028-.426,0-.464-.274-.5-.627-.04-.583-.04-2.569-.04-3.465v-2.81c0-1.071.04-5.125.08-6.177,0-.272-.08-.349-.194-.349a1.681,1.681,0,0,0-.428.115,16.6,16.6,0,0,1-2.923,1.132c-.122.037-.157.113-.157.154v.232c0,.082,0,.119.117.161l.388.114a1.19,1.19,0,0,1,.994,1.169c.038.507.079,2.182.079,3.547v6.1c0,.546-.294.7-.487.7,0,0-.294.028-1.007.028s-.995-.028-.995-.028c-.43,0-.47-.274-.508-.627-.04-.583-.04-2.569-.04-3.465v-2.81c0-1.071.04-5.125.078-6.177,0-.272-.078-.349-.193-.349a1.763,1.763,0,0,0-.43.115,16.412,16.412,0,0,1-2.922,1.132c-.12.037-.157.113-.157.154v.232c0,.082,0,.119.119.161l.388.114a1.2,1.2,0,0,1,.995,1.169c.04.507.078,2.182.078,3.547v6.1c0,.546-.292.7-.488.7h-.742c-.231,0-.271.038-.271.158v.369c0,.115.04.2.155.2.079,0,3.815-.037,7.49-.037,3.547,0,7.033.037,7.11.037.119,0,.157-.08.157-.2v-.394c0-.095-.038-.133-.195-.133" fill="#1b3534"/>
      <path id="Path_64" data-name="Path 64" d="M703.309,2210.539c-.127-.122-.353-.322-.367-.341s-.091,0-.111.022a5.742,5.742,0,0,1-4.489,2.047,4.191,4.191,0,0,1-3.351-1.522,7.882,7.882,0,0,1-1.8-5.068c0-2.8,1.287-5.611,4.4-5.611a4.641,4.641,0,0,1,3.393,1.442,6.947,6.947,0,0,1,1.522,2.53c.057.158.117.236.212.2l.371-.119c.078-.018.1-.08.078-.2-.078-.583-.468-3.7-.468-4.048,0-.276-.038-.314-.274-.314s-.274,0-.311.12l-.158.5c-.036.154-.116.154-.387,0a8.508,8.508,0,0,0-3.937-.935,6.735,6.735,0,0,0-5.068,2.066,7.553,7.553,0,0,0-1.987,5.221,7.44,7.44,0,0,0,2.1,5.265,7.267,7.267,0,0,0,10.649-1.079.162.162,0,0,0-.028-.182" fill="#1b3534"/>
      <path id="Path_65" data-name="Path 65" d="M726.9,2202.47a1.189,1.189,0,1,1-1.189-1.19,1.188,1.188,0,0,1,1.189,1.19" fill="#1b3534"/>
      <rect id="Rectangle_34" data-name="Rectangle 34" width="0.649" height="4.373" transform="translate(691.403 2216.843)" fill="#1b3534"/>
      <path id="Path_66" data-name="Path 66" d="M697.411,2221.216h-.42l-2.578-3.275v3.275h-.638v-4.372h.575l2.512,3.2v-3.2h.638v4.372h-.089" fill="#1b3534"/>
      <path id="Path_67" data-name="Path 67" d="M700.291,2221.216v-3.758h-1.409v-.614h3.474v.614h-1.408v3.758h-.657" fill="#1b3534"/>
      <path id="Path_68" data-name="Path 68" d="M703.737,2221.216v-4.372h3.209v.607h-2.561v1.256h2.291v.609h-2.291v1.291h2.591v.61h-3.239" fill="#1b3534"/>
      <path id="Path_69" data-name="Path 69" d="M717.065,2221.216h-.422l-2.578-3.275v3.275h-.637v-4.372H714l2.511,3.2v-3.2h.639v4.372h-.088" fill="#1b3534"/>
      <path id="Path_70" data-name="Path 70" d="M722.264,2221.216l-.49-1.11H719.6l-.5,1.11h-.68l1.991-4.4h.558l1.992,4.4h-.7m-2.395-1.711h1.64l-.819-1.836Z" fill="#1b3534"/>
      <path id="Path_71" data-name="Path 71" d="M724.81,2221.216v-3.758H723.4v-.614h3.472v.614h-1.407v3.759h-.657" fill="#1b3534"/>
      <rect id="Rectangle_35" data-name="Rectangle 35" width="0.65" height="4.372" transform="translate(728.298 2216.844)" fill="#1b3534"/>
      <path id="Path_72" data-name="Path 72" d="M740.073,2221.216h-.42l-2.578-3.274v3.274h-.637v-4.371h.573l2.512,3.2v-3.2h.637v4.371h-.087" fill="#1b3534"/>
      <path id="Path_73" data-name="Path 73" d="M745.271,2221.216l-.491-1.109h-2.168l-.5,1.109h-.68l1.992-4.4h.558l1.992,4.4h-.705m-2.4-1.711h1.64l-.817-1.836Z" fill="#1b3534"/>
      <path id="Path_74" data-name="Path 74" d="M747.249,2221.216v-4.372h.65v3.757h2.362v.615h-3.012" fill="#1b3534"/>
      <path id="Path_75" data-name="Path 75" d="M710.275,2218.984h-1.2v-1.526h1.207c.655.009.979.278.985.745,0,.486-.387.774-.99.781m.572.487a1.29,1.29,0,0,0,1.073-1.286c0-.809-.653-1.339-1.6-1.34h-1.892v4.373h.65v-1.631h1.067l1.217,1.631h.8Z" fill="#1b3534"/>
      <path id="Path_76" data-name="Path 76" d="M732.72,2220.673a1.581,1.581,0,0,1-1.566-1.649,1.56,1.56,0,0,1,1.554-1.638,1.58,1.58,0,0,1,1.565,1.65,1.561,1.561,0,0,1-1.553,1.637m0-3.9a2.257,2.257,0,1,0,2.221,2.251A2.22,2.22,0,0,0,732.72,2216.773Z" fill="#1b3534"/>
    </g>
  </g>
</svg>
