<svg xmlns="http://www.w3.org/2000/svg" width="168.06" height="17.923" viewBox="0 0 168.06 17.923">
  <g id="Logo" transform="translate(-135.944 -62.048)">
    <path id="Path_106" data-name="Path 106" d="M154.662,79.611h-2.927l-3.852-12.787-3.877,12.787h-2.927l-5.135-17.2h2.876L142.6,75.374l3.953-12.966h2.645l3.954,12.966,3.774-12.966h2.9Z" fill="#fff"/>
    <path id="Path_107" data-name="Path 107" d="M180.155,79.611H167.342v-17.2H180.13V64.9H170.09v4.852h9.269v2.465H170.09v4.9h10.065Z" fill="#fff"/>
    <path id="Path_108" data-name="Path 108" d="M201.438,66.9l-2.747.564a3.736,3.736,0,0,0-3.929-3.029c-2.029,0-3.364,1.1-3.364,2.619,0,1.206.694,1.848,2.183,2.156l3.724.8c2.567.564,4.415,2,4.415,4.7,0,3.235-2.645,5.264-6.6,5.264-3.646,0-6.676-1.772-7.113-5.11l2.927-.617c.411,2.209,2.132,3.287,4.442,3.287s3.621-1.1,3.621-2.67c0-1.31-.693-1.925-2.414-2.285l-3.748-.77c-2.132-.489-4.339-1.618-4.339-4.673,0-3.031,2.49-5.085,6.316-5.085C198.306,62.048,200.822,63.949,201.438,66.9Z" fill="#fff"/>
    <path id="Path_109" data-name="Path 109" d="M217.073,64.9V79.611H214.3V64.9h-6.034V62.408h14.867V64.9Z" fill="#fff"/>
    <path id="Path_110" data-name="Path 110" d="M255.173,79.611H242.36v-17.2h12.788V64.9h-10.04v4.852h9.269v2.465h-9.269v4.9h10.065Z" fill="#fff"/>
    <path id="Path_111" data-name="Path 111" d="M279.307,79.611h-2.338l-10.4-12.351V79.611h-2.748v-17.2h2.337l10.373,12.556V62.408h2.774Z" fill="#fff"/>
    <path id="Path_112" data-name="Path 112" d="M294.5,62.408c5.854,0,9.5,3.595,9.5,8.6s-3.646,8.6-9.5,8.6h-6.009v-17.2Zm0,14.712c4.185,0,6.727-2.541,6.727-6.11S298.689,64.9,294.5,64.9h-3.261V77.12Z" fill="#fff"/>
  </g>
</svg>
